<svg xmlns="http://www.w3.org/2000/svg" viewBox="0 0 48 48"><defs><style>.cls-1{fill:#201602;}</style></defs><title>Asset 56ldpi</title><g id="Layer_2" data-name="Layer 2"><g id="layer_1-2" data-name="layer 1"><path class="cls-1" d="M44,17H42V2H6V17H4V1A1,1,0,0,1,5,0H43a1,1,0,0,1,1,1Z"/><path class="cls-1" d="M43,48H5a1,1,0,0,1-1-1V33H6V46H42V33h2V47A1,1,0,0,1,43,48Z"/><path class="cls-1" d="M41,32H26a7,7,0,0,1-5.22-11.67l1.49,1.34A5,5,0,0,0,26,30H41a5,5,0,0,0,0-10H28V18H41a7,7,0,0,1,0,14Z"/><path class="cls-1" d="M20,32H7A7,7,0,0,1,7,18H22a7,7,0,0,1,5.22,11.67l-1.49-1.34A5,5,0,0,0,22,20H7A5,5,0,0,0,7,30H20Z"/><rect class="cls-1" x="8" y="4" width="2" height="2"/><rect class="cls-1" x="12" y="4" width="2" height="2"/><rect class="cls-1" x="16" y="4" width="2" height="2"/><rect class="cls-1" x="5" y="8" width="38" height="2"/><rect class="cls-1" x="7" y="40" width="34" height="2"/></g></g></svg>