<svg xmlns="http://www.w3.org/2000/svg" viewBox="0 0 48 48"><defs><style>.cls-1{fill:#201602;}</style></defs><title>Asset 30ldpi</title><g id="Layer_2" data-name="Layer 2"><g id="layer_1-2" data-name="layer 1"><path class="cls-1" d="M42,48H6a6,6,0,0,1-6-6V6A6,6,0,0,1,6,0H42a6,6,0,0,1,6,6V42A6,6,0,0,1,42,48ZM6,2A4,4,0,0,0,2,6V42a4,4,0,0,0,4,4H42a4,4,0,0,0,4-4V6a4,4,0,0,0-4-4Z"/><rect class="cls-1" x="4" y="4" width="2" height="2"/><rect class="cls-1" x="8" y="4" width="2" height="2"/><rect class="cls-1" x="12" y="4" width="2" height="2"/><rect class="cls-1" x="1" y="8" width="46" height="2"/><path class="cls-1" d="M36.29,47.71,11,22.41l-9.29,9.3L.29,30.29l10-10a1,1,0,0,1,1.42,0l26,26Z"/><path class="cls-1" d="M46.29,40.71,34,28.41l-7.29,7.3-1.42-1.42,8-8a1,1,0,0,1,1.42,0l13,13Z"/><path class="cls-1" d="M28,24a5,5,0,1,1,5-5A5,5,0,0,1,28,24Zm0-8a3,3,0,1,0,3,3A3,3,0,0,0,28,16Z"/></g></g></svg>